# xmcd
#
# Track frame offsets:
#        150
#        19327
#        39222
#        54340
#        74090
#
# Disc length: 1259 seconds
#
# Revision: 1
# Processed by: cddbd v1.5.1PL0 Copyright (c) Steve Scherf et al.
# Submitted via: ExactAudioCopy v0.95a5
#
DISCID=3e04e905
DTITLE=Ben Folds - Sunny 16 EP
DYEAR=1900
DGENRE=
TTITLE0=There's Always Someone Cooler Than You
TTITLE1=Learn To Live With What You Are
TTITLE2=All U Can Eat
TTITLE3=Rockstar
TTITLE4=Songs of Love
EXTD=
EXTT0=
EXTT1=
EXTT2=
EXTT3=
EXTT4=
PLAYORDER=
